
<svg xmlns="http://www.w3.org/2000/svg" version="1.1" viewBox="0.00 0.00 1200.00 1194.00">
<path fill="black" d="
  M 592.87 0.00
  L 601.52 0.00
  Q 651.22 3.39 681.85 40.16
  C 699.36 61.19 708.14 87.94 706.92 114.96
  C 704.81 161.59 674.41 201.01 629.95 215.36
  C 595.80 226.38 559.03 219.18 530.92 198.16
  C 472.76 154.68 472.52 67.10 530.01 22.92
  Q 557.30 1.95 592.87 0.00
  Z
  M 522.99 46.22
  L 583.25 82.22
  A 0.31 0.31 0.0 0 0 583.71 82.01
  L 596.81 12.00
  Q 597.10 10.45 597.39 12.00
  L 610.54 82.24
  A 0.17 0.16 70.3 0 0 610.78 82.36
  L 671.29 46.29
  Q 672.75 45.42 671.68 46.74
  L 630.04 98.24
  Q 629.63 98.75 630.28 98.86
  L 696.39 109.81
  A 0.38 0.38 0.0 0 0 696.83 109.43
  Q 696.31 77.57 677.99 52.02
  C 650.39 13.52 599.30 -0.65 556.02 19.30
  C 520.59 35.64 498.13 69.96 497.37 109.32
  A 0.51 0.51 0.0 0 0 497.96 109.83
  L 563.99 98.89
  A 0.37 0.37 0.0 0 0 564.22 98.29
  L 522.59 46.68
  Q 521.50 45.33 522.99 46.22
  Z
  M 672.01 174.01
  Q 672.80 174.99 671.72 174.34
  L 611.01 138.24
  A 0.36 0.35 -68.9 0 0 610.48 138.48
  L 597.45 208.50
  Q 597.11 210.33 596.76 208.50
  L 583.73 138.83
  Q 583.63 138.29 583.16 138.57
  L 522.64 173.93
  Q 521.16 174.80 522.25 173.47
  L 564.17 122.33
  Q 564.61 121.79 563.93 121.68
  L 497.98 110.58
  A 0.54 0.54 0.0 0 0 497.34 111.13
  C 498.43 154.90 525.70 192.23 567.28 205.56
  C 607.86 218.58 652.61 203.59 677.61 169.03
  Q 696.06 143.52 696.85 111.41
  Q 696.87 110.58 696.06 110.72
  L 630.07 121.63
  A 0.26 0.26 0.0 0 0 629.91 122.05
  L 672.01 174.01
  Z"
/>
<path fill="black" d="
  M 267.62 249.79
  C 272.10 241.11 277.08 233.04 283.05 225.77
  C 302.56 201.99 329.85 190.21 360.16 189.39
  A 0.20 0.19 -78.5 0 1 360.34 189.67
  C 354.42 202.08 346.15 214.38 336.06 224.17
  Q 309.15 250.26 268.03 250.47
  Q 267.27 250.47 267.62 249.79
  Z"
/>
<path fill="black" d="
  M 888.48 204.83
  C 908.34 215.48 922.96 232.93 932.95 253.24
  Q 933.23 253.80 932.61 253.79
  Q 891.49 253.64 864.46 227.48
  C 854.44 217.78 846.36 205.73 840.28 193.11
  Q 840.08 192.68 840.55 192.70
  C 857.12 193.23 873.86 196.99 888.48 204.83
  Z"
/>
<path fill="black" d="
  M 244.19 272.00
  A 0.19 0.19 0.0 0 0 244.43 272.24
  Q 276.90 260.95 310.09 262.40
  A 0.34 0.34 0.0 0 1 310.36 262.93
  C 291.41 291.30 261.50 307.09 228.74 318.11
  Q 209.30 324.65 189.82 329.86
  A 0.20 0.20 0.0 0 1 189.57 329.65
  Q 191.40 306.60 198.45 285.47
  Q 216.43 231.59 267.39 207.01
  Q 267.81 206.81 267.65 207.25
  L 244.19 272.00
  Z"
/>
<path fill="black" d="
  M 955.91 275.39
  A 0.29 0.29 0.0 0 0 956.28 275.01
  L 932.99 210.70
  Q 932.73 210.01 933.40 210.33
  Q 985.57 235.56 1003.16 291.90
  Q 1009.24 311.38 1010.92 332.52
  Q 1010.97 333.05 1010.45 332.91
  Q 991.07 327.73 972.32 321.46
  C 940.30 310.74 909.36 295.01 890.15 266.00
  Q 889.88 265.60 890.36 265.58
  Q 923.89 264.19 955.91 275.39
  Z"
/>
<path fill="black" d="
  M 157.77 365.02
  A 0.42 0.41 80.4 0 0 158.38 365.46
  Q 193.93 345.60 234.32 340.17
  Q 235.01 340.08 234.73 340.71
  C 220.68 372.40 195.56 395.80 166.16 413.56
  Q 136.74 431.34 104.66 445.56
  A 0.15 0.14 75.4 0 1 104.46 445.44
  C 102.13 417.19 104.05 388.14 113.14 361.13
  Q 129.20 313.38 171.85 283.02
  Q 172.32 282.68 172.22 283.25
  L 157.77 365.02
  Z"
/>
<path fill="black" d="
  M 522.99 291.17
  Q 520.45 290.59 519.27 288.31
  A 0.77 0.77 0.0 0 1 520.12 287.20
  Q 522.12 287.65 524.01 288.05
  C 527.11 288.70 528.74 286.41 531.19 285.27
  A 0.95 0.94 1.0 0 1 532.43 286.55
  Q 529.36 292.64 522.99 291.17
  Z"
/>
<path fill="black" d="
  M 601.45 294.27
  Q 601.95 290.52 599.82 289.06
  A 1.58 1.58 0.0 0 1 600.23 286.26
  Q 605.45 284.59 610.46 286.06
  A 1.54 1.53 32.3 0 1 611.05 288.68
  L 609.91 289.69
  Q 609.52 290.04 609.52 290.57
  Q 609.54 296.52 608.23 303.11
  Q 607.84 305.08 609.56 305.82
  Q 610.04 306.03 610.03 306.55
  C 609.98 310.59 601.39 309.63 598.95 309.01
  A 1.57 1.57 0.0 0 1 598.37 306.25
  Q 600.93 304.25 599.85 299.51
  Q 599.73 299.01 599.22 299.02
  L 595.25 299.08
  Q 594.66 299.09 594.55 299.66
  Q 593.70 303.76 596.07 305.95
  A 1.64 1.64 0.0 0 1 595.48 308.71
  C 593.54 309.36 584.18 310.98 584.01 307.23
  Q 583.98 306.56 584.58 306.29
  Q 585.40 305.92 585.93 305.21
  Q 586.25 304.79 586.25 304.27
  L 586.25 291.22
  Q 586.25 290.68 585.88 290.28
  Q 585.43 289.79 584.79 289.54
  Q 584.16 289.30 584.18 288.62
  C 584.31 284.87 593.36 285.44 595.65 285.92
  A 1.60 1.59 -88.7 0 1 596.91 287.24
  Q 597.15 288.82 595.83 289.41
  A 1.01 1.01 0.0 0 0 595.23 290.35
  L 595.31 294.00
  A 0.88 0.88 0.0 0 0 596.19 294.86
  L 600.75 294.88
  Q 601.37 294.88 601.45 294.27
  Z"
/>
<path fill="black" d="
  M 567.47 305.26
  L 567.78 305.12
  A 0.47 0.46 -33.9 0 0 567.93 304.37
  Q 562.04 298.31 556.46 292.84
  C 555.79 292.18 555.03 291.99 554.22 291.58
  Q 553.66 291.29 553.67 290.67
  C 553.68 286.91 563.54 287.36 565.80 287.67
  A 1.69 1.68 10.8 0 1 567.21 289.73
  L 566.99 290.69
  Q 566.86 291.21 567.16 291.67
  Q 568.88 294.31 571.33 295.81
  Q 571.96 296.20 572.37 295.59
  Q 573.85 293.44 574.46 290.88
  A 0.88 0.87 -70.9 0 0 573.98 289.89
  L 572.36 289.14
  A 0.72 0.72 0.0 0 1 572.00 288.18
  C 573.08 285.83 578.82 285.98 580.89 286.23
  A 1.29 1.28 25.2 0 1 581.67 288.39
  C 580.78 289.32 579.91 290.07 579.33 291.25
  Q 575.26 299.50 571.32 307.39
  C 569.76 310.53 565.06 313.16 561.59 310.84
  C 558.13 308.52 559.24 303.73 563.69 303.45
  C 564.89 303.38 565.68 304.36 566.48 305.10
  A 0.93 0.92 -35.5 0 0 567.47 305.26
  Z"
/>
<path fill="black" d="
  M 623.81 291.92
  L 623.79 296.70
  A 0.42 0.41 -11.8 0 0 624.38 297.08
  Q 627.18 295.79 629.87 292.89
  Q 631.05 291.62 629.87 290.21
  A 1.94 1.94 0.0 0 1 631.03 287.05
  C 632.91 286.73 639.10 286.67 640.69 288.54
  Q 641.24 289.19 640.96 290.02
  C 640.46 291.50 638.79 291.15 638.57 292.95
  Q 637.80 299.23 636.84 305.53
  C 636.70 306.42 636.98 307.19 637.76 307.69
  A 1.60 1.60 0.0 0 1 637.36 310.56
  Q 632.38 312.08 627.02 309.92
  A 1.55 1.55 0.0 0 1 626.68 307.23
  Q 629.71 304.99 628.56 299.76
  A 0.40 0.39 -21.8 0 0 627.97 299.51
  C 626.42 300.40 620.70 304.00 623.09 306.41
  A 1.42 1.40 -69.3 0 1 623.50 307.33
  C 623.72 311.69 614.13 309.39 612.39 308.56
  Q 611.30 308.04 611.58 306.81
  Q 611.75 306.04 612.49 305.77
  Q 614.13 305.17 614.33 303.43
  Q 615.03 297.15 615.31 291.35
  Q 615.37 290.03 614.20 289.25
  A 1.33 1.33 0.0 0 1 614.05 287.14
  C 616.42 285.06 622.63 286.06 625.31 287.03
  A 1.65 1.64 39.3 0 1 625.61 289.98
  L 624.53 290.65
  Q 623.82 291.09 623.81 291.92
  Z"
/>
<path fill="black" d="
  M 1042.88 368.45
  L 1028.35 286.52
  Q 1028.22 285.77 1028.83 286.22
  Q 1088.48 329.21 1095.89 404.74
  Q 1097.96 425.90 1096.14 448.56
  A 0.24 0.23 14.6 0 1 1095.81 448.75
  Q 1068.95 436.60 1044.02 422.50
  C 1010.64 403.62 981.03 378.90 965.79 343.77
  A 0.29 0.28 -7.8 0 1 966.09 343.38
  Q 1006.57 348.60 1042.46 368.75
  A 0.29 0.28 -80.5 0 0 1042.88 368.45
  Z"
/>
<path fill="black" d="
  M 661.24 301.37
  C 663.38 302.56 664.95 304.51 664.41 307.11
  C 663.11 313.35 658.19 313.96 652.61 313.10
  Q 647.01 312.23 641.38 311.64
  Q 639.80 311.47 639.65 309.91
  A 1.11 1.11 0.0 0 1 640.22 308.83
  Q 642.23 307.74 642.65 304.82
  Q 643.40 299.52 644.36 294.31
  C 644.62 292.94 644.05 291.69 642.90 290.89
  A 1.31 1.29 -60.7 0 1 642.46 289.29
  Q 642.93 288.23 644.05 288.36
  C 647.52 288.76 651.12 289.67 654.74 289.58
  C 658.75 289.48 663.95 290.59 663.85 295.56
  C 663.82 297.51 662.63 299.35 661.17 300.58
  A 0.48 0.48 0.0 0 0 661.24 301.37
  Z
  M 653.10 293.25
  L 652.21 298.43
  A 0.71 0.71 0.0 0 0 652.79 299.25
  L 653.11 299.31
  A 2.47 2.29 -80.3 0 0 655.78 297.26
  L 656.07 295.54
  A 2.47 2.29 -80.3 0 0 654.23 292.72
  L 653.92 292.67
  A 0.71 0.71 0.0 0 0 653.10 293.25
  Z
  M 651.49 303.44
  L 651.40 308.58
  A 0.86 0.86 0.0 0 0 652.24 309.46
  L 652.71 309.47
  A 2.98 2.81 -89.0 0 0 655.57 306.54
  L 655.59 305.64
  A 2.98 2.81 -89.0 0 0 652.83 302.61
  L 652.36 302.60
  A 0.86 0.86 0.0 0 0 651.49 303.44
  Z"
/>
<path fill="black" d="
  M 526.12 303.56
  C 527.85 302.45 528.85 300.62 530.02 298.94
  Q 531.38 296.99 529.29 295.69
  A 1.89 1.89 0.0 0 1 529.52 292.36
  Q 533.79 290.47 538.54 290.97
  A 1.69 1.69 0.0 0 1 539.54 293.86
  L 538.72 294.65
  A 1.17 1.17 0.0 0 0 538.37 295.67
  Q 539.32 302.53 541.01 309.27
  Q 541.15 309.80 541.64 310.05
  L 542.57 310.51
  A 1.62 1.62 0.0 0 1 542.63 313.38
  Q 537.91 315.98 532.70 315.01
  A 1.57 1.57 0.0 0 1 531.80 312.44
  C 533.48 310.49 532.91 307.75 532.67 305.44
  A 0.85 0.85 0.0 0 0 531.20 304.95
  Q 528.96 307.36 527.49 309.93
  A 1.88 1.86 -54.3 0 0 527.86 312.24
  L 528.74 313.03
  A 1.75 1.74 53.0 0 1 528.34 315.89
  Q 523.70 318.15 518.90 317.53
  A 1.58 1.58 0.0 0 1 518.01 314.83
  L 518.77 314.10
  A 1.20 1.18 -24.4 0 0 519.12 313.19
  Q 518.72 306.37 516.76 299.44
  Q 516.60 298.88 516.05 298.69
  L 515.20 298.40
  A 1.53 1.53 0.0 0 1 514.91 295.65
  Q 519.95 292.59 525.38 293.53
  A 1.59 1.59 0.0 0 1 526.28 296.17
  L 525.62 296.90
  Q 525.26 297.29 525.21 297.81
  Q 524.93 300.71 525.36 303.23
  Q 525.49 303.97 526.12 303.56
  Z"
/>
<path fill="black" d="
  M 678.08 303.46
  Q 679.21 303.88 680.28 303.85
  Q 680.89 303.83 681.07 303.24
  L 681.69 301.15
  A 1.16 1.15 -80.2 0 1 682.84 300.33
  Q 683.96 300.38 684.20 301.49
  C 684.67 303.66 684.55 308.34 682.54 310.04
  Q 680.35 311.89 680.50 309.02
  Q 680.59 307.44 679.21 306.67
  A 1.47 1.47 0.0 0 0 677.04 307.74
  L 676.44 311.84
  Q 676.29 312.92 677.32 313.26
  Q 683.67 315.37 686.49 311.36
  A 2.02 2.00 12.1 0 1 687.77 310.54
  Q 688.49 310.40 688.98 310.98
  C 690.40 312.69 687.44 316.91 686.17 318.10
  Q 685.68 318.56 685.03 318.42
  Q 677.35 316.69 667.00 314.98
  Q 665.59 314.75 665.48 313.38
  A 0.85 0.85 0.0 0 1 665.94 312.55
  L 667.62 311.72
  A 1.34 1.31 85.1 0 0 668.31 310.88
  Q 670.32 303.79 670.80 297.21
  Q 670.89 295.97 669.87 295.20
  Q 669.39 294.85 669.25 294.28
  C 668.98 293.19 669.75 292.12 670.94 292.16
  C 672.39 292.21 673.86 292.19 675.27 292.59
  Q 681.90 294.47 688.22 294.71
  Q 688.82 294.74 689.12 295.26
  Q 690.67 297.99 689.63 300.77
  A 1.60 1.59 -46.7 0 1 686.68 300.86
  Q 684.92 296.88 679.23 297.55
  Q 678.51 297.64 678.30 298.33
  Q 677.61 300.49 677.53 302.62
  Q 677.50 303.24 678.08 303.46
  Z"
/>
<path fill="black" d="
  M 513.13 315.12
  L 514.49 315.23
  Q 514.79 315.26 514.99 315.47
  C 515.83 316.37 515.61 317.63 514.55 318.23
  Q 509.54 321.05 504.36 321.14
  A 1.43 1.42 -73.3 0 1 503.16 318.91
  Q 504.34 317.17 503.72 314.96
  Q 502.19 309.57 500.60 305.03
  C 500.17 303.81 499.38 303.04 498.09 302.77
  A 1.42 1.42 0.0 0 1 497.37 300.39
  C 499.66 298.05 505.56 296.59 508.44 296.72
  Q 509.66 296.77 510.06 298.02
  Q 510.24 298.57 509.83 298.98
  Q 508.13 300.67 508.77 303.16
  Q 510.46 309.73 512.16 314.38
  Q 512.41 315.06 513.13 315.12
  Z"
/>
<path fill="black" d="
  M 701.60 314.36
  Q 699.94 317.75 702.05 320.00
  A 1.34 1.34 0.0 0 1 701.06 322.25
  C 698.81 322.24 689.57 320.97 690.23 317.57
  Q 690.35 316.92 691.02 316.96
  C 692.18 317.03 693.19 316.40 693.47 315.24
  Q 695.06 308.72 696.69 302.14
  A 0.94 0.93 28.7 0 0 696.42 301.22
  L 694.84 299.75
  Q 694.37 299.31 694.63 298.73
  Q 695.36 297.10 697.25 297.64
  Q 702.70 299.20 708.74 300.45
  C 713.73 301.49 717.55 306.67 714.85 311.60
  C 712.40 316.08 706.62 315.97 702.51 314.04
  A 0.69 0.68 25.2 0 0 701.60 314.36
  Z
  M 704.00 304.31
  L 702.70 309.55
  A 1.08 1.08 0.0 0 0 703.49 310.86
  L 703.81 310.94
  A 3.58 3.31 -76.1 0 0 707.88 308.26
  L 707.98 307.87
  A 3.58 3.31 -76.1 0 0 705.63 303.60
  L 705.31 303.52
  A 1.08 1.08 0.0 0 0 704.00 304.31
  Z"
/>
<path fill="black" d="
  M 486.90 312.13
  C 490.84 310.41 495.31 310.11 498.29 313.34
  C 500.60 315.84 501.02 319.86 498.58 322.51
  Q 496.42 324.85 493.21 325.61
  Q 487.41 326.99 481.65 328.63
  A 1.85 1.85 0.0 0 1 480.65 328.63
  Q 479.06 328.19 479.26 327.00
  Q 479.38 326.27 480.02 325.87
  Q 480.70 325.45 481.13 324.76
  Q 481.41 324.30 481.27 323.77
  Q 479.45 316.87 477.72 310.63
  Q 477.31 309.13 475.65 309.25
  Q 474.76 309.32 474.55 308.45
  Q 474.30 307.43 475.14 306.87
  Q 479.75 303.83 485.45 304.03
  A 1.34 1.34 0.0 0 1 486.38 306.29
  Q 484.34 308.45 485.86 311.73
  Q 486.19 312.44 486.90 312.13
  Z
  M 487.40 316.56
  L 488.77 321.72
  A 1.05 1.05 0.0 0 0 490.05 322.47
  L 490.48 322.35
  A 3.39 3.11 75.2 0 0 492.62 318.28
  L 492.45 317.64
  A 3.39 3.11 75.2 0 0 488.58 315.16
  L 488.15 315.27
  A 1.05 1.05 0.0 0 0 487.40 316.56
  Z"
/>
<path fill="black" d="
  M 727.90 311.42
  C 722.13 312.29 722.98 328.70 734.03 325.36
  Q 736.39 324.65 736.17 327.10
  Q 736.08 328.06 735.35 328.86
  Q 733.64 330.75 731.10 330.60
  Q 729.74 330.52 728.26 330.57
  C 715.62 331.03 709.54 313.38 722.19 307.74
  C 727.30 305.46 732.64 306.81 736.73 310.63
  Q 737.16 311.03 737.74 311.03
  C 742.80 311.01 740.75 322.94 735.11 319.22
  A 1.29 1.27 10.9 0 1 734.56 318.42
  C 733.82 314.90 732.36 310.75 727.90 311.42
  Z"
/>
<path fill="black" d="
  M 462.99 319.84
  Q 462.43 316.43 459.86 315.72
  A 1.55 1.55 0.0 0 1 459.30 313.01
  Q 463.60 309.59 468.72 309.21
  A 1.67 1.67 0.0 0 1 470.27 311.74
  Q 468.87 314.03 470.20 316.71
  Q 472.35 321.01 474.77 325.50
  Q 475.02 325.96 475.47 326.21
  Q 476.22 326.63 477.11 326.64
  Q 477.79 326.64 477.87 327.32
  C 478.28 330.88 470.41 332.74 467.94 332.99
  A 1.46 1.46 0.0 0 1 466.43 331.02
  Q 467.62 327.86 465.48 324.20
  Q 465.18 323.69 464.63 323.92
  L 460.76 325.51
  A 1.58 1.57 73.9 0 0 459.81 327.24
  Q 460.47 330.89 463.16 331.85
  A 1.58 1.58 0.0 0 1 463.65 334.55
  Q 459.30 338.19 453.77 338.39
  A 1.41 1.41 0.0 0 1 452.61 336.11
  Q 453.10 335.49 453.38 334.71
  Q 453.54 334.24 453.41 333.75
  Q 451.78 327.62 448.56 321.33
  Q 448.33 320.88 447.86 320.69
  Q 447.24 320.43 446.56 320.57
  A 0.90 0.90 0.0 0 1 445.48 319.81
  C 445.01 316.31 453.56 313.96 455.65 313.83
  A 1.48 1.48 0.0 0 1 456.94 316.17
  Q 455.21 318.56 457.10 321.56
  Q 457.60 322.36 458.54 322.23
  Q 460.56 321.96 462.48 320.90
  Q 463.11 320.55 462.99 319.84
  Z"
/>
<path fill="black" d="
  M 755.07 330.68
  Q 751.71 330.89 748.41 332.76
  Q 747.38 333.34 747.37 334.52
  L 747.35 336.42
  A 1.67 1.67 0.0 0 1 745.51 338.06
  Q 740.72 337.55 736.95 334.29
  Q 735.75 333.26 736.61 332.00
  A 1.51 1.49 -69.7 0 1 738.02 331.34
  Q 739.36 331.48 740.00 330.30
  Q 743.02 324.78 745.37 318.53
  A 1.46 1.46 0.0 0 0 745.10 317.05
  Q 744.55 316.42 744.28 315.64
  Q 744.15 315.27 744.41 314.98
  C 746.81 312.31 753.86 316.33 755.71 317.83
  A 1.66 1.65 60.0 0 1 754.93 320.75
  L 753.50 320.98
  A 0.98 0.97 -81.8 0 0 752.77 321.53
  L 750.75 325.72
  A 0.92 0.92 0.0 0 0 751.57 327.03
  Q 754.55 327.05 757.87 325.11
  Q 758.92 324.49 758.69 323.29
  L 758.39 321.76
  A 1.47 1.46 89.4 0 1 760.08 320.03
  C 762.66 320.49 768.27 322.39 769.19 324.83
  Q 769.57 325.82 768.78 326.53
  C 768.07 327.17 767.34 326.90 766.54 327.22
  Q 765.99 327.44 765.73 327.98
  Q 763.37 332.89 760.80 338.73
  Q 760.04 340.46 761.20 341.69
  Q 761.54 342.05 761.47 342.53
  Q 761.37 343.28 760.65 343.69
  C 758.22 345.08 752.19 341.41 750.36 339.79
  A 1.53 1.52 -34.3 0 1 750.85 337.22
  L 752.77 336.51
  A 1.09 1.08 2.8 0 0 753.36 335.98
  L 755.54 331.38
  Q 755.90 330.63 755.07 330.68
  Z"
/>
<path fill="black" d="
  M 438.14 334.79
  L 434.02 336.83
  A 0.78 0.76 71.2 0 0 433.61 337.69
  Q 434.49 341.79 437.34 342.74
  Q 438.27 343.05 438.41 343.99
  Q 438.57 345.10 437.65 345.85
  Q 433.71 349.06 428.55 349.88
  A 1.45 1.45 0.0 0 1 427.03 349.09
  Q 426.42 347.86 427.28 346.98
  A 2.02 2.00 57.0 0 0 427.72 344.87
  Q 425.57 339.20 422.51 333.22
  C 421.98 332.19 421.05 332.20 420.06 332.29
  A 0.90 0.89 75.4 0 1 419.16 331.75
  Q 418.69 330.65 419.47 329.81
  Q 423.00 326.01 428.82 325.04
  A 1.49 1.49 0.0 0 1 430.31 327.32
  Q 428.59 329.98 430.96 333.00
  Q 431.34 333.48 431.90 333.22
  L 435.88 331.36
  Q 436.66 331.00 436.49 330.16
  Q 435.78 326.66 433.08 326.34
  A 1.33 1.33 0.0 0 1 432.33 324.04
  Q 436.73 320.00 442.00 319.48
  A 1.81 1.81 0.0 0 1 443.71 322.25
  C 442.93 323.47 443.08 324.64 443.66 325.90
  Q 445.73 330.42 447.95 335.55
  C 448.41 336.61 449.17 337.22 450.36 337.11
  A 0.90 0.90 0.0 0 1 451.32 337.77
  C 452.21 341.06 444.09 344.18 441.35 343.77
  A 1.47 1.47 0.0 0 1 440.22 341.73
  Q 441.48 338.88 439.22 335.11
  Q 438.83 334.45 438.14 334.79
  Z"
/>
<path fill="black" d="
  M 776.50 332.06
  A 0.92 0.91 -30.0 0 0 775.22 331.72
  Q 773.07 333.01 771.05 333.29
  A 1.89 1.89 0.0 0 1 769.11 330.55
  Q 771.04 326.80 775.02 326.15
  A 1.24 1.24 0.0 0 1 775.99 326.40
  C 779.86 329.38 785.61 331.34 790.29 333.12
  Q 790.90 333.36 791.18 333.94
  C 792.35 336.37 792.32 341.69 788.66 342.11
  A 2.18 2.18 0.0 0 1 786.24 340.13
  L 785.99 337.19
  A 1.01 1.01 0.0 0 0 784.72 336.30
  Q 784.15 336.45 783.88 336.97
  Q 781.11 342.22 778.50 347.42
  Q 778.20 348.02 778.35 348.66
  Q 778.57 349.65 779.32 350.48
  A 1.30 1.29 34.3 0 1 779.58 351.84
  Q 778.97 353.36 777.33 353.00
  Q 771.00 351.60 766.48 347.02
  A 1.36 1.36 0.0 0 1 767.49 344.70
  L 769.43 344.75
  A 0.84 0.84 0.0 0 0 770.17 344.37
  Q 773.97 338.71 776.54 333.00
  Q 776.75 332.52 776.50 332.06
  Z"
/>
<path fill="black" d="
  M 409.95 345.66
  L 411.40 344.95
  Q 412.06 344.62 411.89 343.90
  L 411.36 341.64
  A 1.10 1.09 -8.3 0 1 412.37 340.29
  Q 413.33 340.23 414.06 340.93
  C 415.46 342.26 419.26 347.58 416.97 349.48
  Q 416.49 349.87 416.06 349.44
  L 414.90 348.28
  Q 413.97 347.35 412.76 347.85
  Q 411.13 348.52 411.96 350.08
  Q 412.82 351.68 413.89 353.27
  A 1.70 1.70 0.0 0 0 415.94 353.89
  Q 421.32 351.74 420.92 347.02
  C 420.83 345.92 421.56 344.92 422.74 345.03
  Q 423.37 345.09 423.76 345.60
  Q 425.89 348.39 425.07 352.43
  Q 424.97 352.94 424.51 353.18
  Q 416.57 357.26 409.19 361.81
  Q 408.32 362.34 407.30 362.32
  A 1.14 1.13 17.7 0 1 406.38 360.54
  C 407.07 359.55 407.09 358.55 406.59 357.48
  Q 403.85 351.68 400.28 346.47
  Q 399.21 344.92 397.36 345.11
  A 1.22 1.22 0.0 0 1 396.06 344.25
  Q 395.59 342.65 397.23 341.82
  Q 406.10 337.34 412.33 332.61
  Q 412.75 332.29 413.24 332.46
  Q 416.08 333.40 417.25 336.48
  A 1.40 1.40 0.0 0 1 415.37 338.26
  Q 411.16 336.39 406.97 340.52
  Q 406.46 341.02 406.80 341.65
  L 408.72 345.27
  Q 409.14 346.06 409.95 345.66
  Z"
/>
<path fill="black" d="
  M 800.06 349.70
  Q 800.88 350.46 801.83 350.48
  Q 802.40 350.49 802.79 350.08
  L 804.26 348.59
  Q 804.60 348.24 805.09 348.32
  Q 806.58 348.59 806.28 350.08
  C 805.87 352.08 803.57 357.42 801.00 357.42
  Q 800.42 357.42 799.99 357.05
  A 0.85 0.85 0.0 0 1 799.78 356.05
  Q 800.86 353.75 798.83 352.45
  A 1.00 0.99 36.7 0 0 797.54 352.63
  Q 795.83 354.63 795.03 357.22
  Q 794.81 357.93 795.37 358.41
  Q 800.46 362.76 804.85 359.65
  A 1.42 1.41 46.1 0 1 806.53 359.69
  Q 807.65 360.55 806.89 361.94
  Q 805.38 364.71 802.15 366.06
  Q 801.50 366.34 800.90 365.96
  Q 792.89 360.90 785.07 356.62
  Q 783.81 355.93 784.30 354.63
  Q 784.53 354.02 785.19 353.99
  L 786.74 353.93
  Q 787.36 353.91 787.72 353.41
  Q 791.81 347.70 794.61 341.77
  Q 795.44 340.00 794.30 338.37
  A 1.23 1.23 0.0 0 1 794.60 336.67
  Q 795.70 335.91 797.01 336.72
  Q 802.07 339.87 807.06 343.13
  Q 809.38 344.65 812.29 345.32
  A 0.97 0.96 88.9 0 1 813.01 346.02
  Q 813.92 349.61 811.44 351.68
  Q 810.55 352.42 809.63 351.70
  Q 808.84 351.09 808.96 350.07
  C 809.31 347.32 805.46 345.34 803.09 344.55
  A 0.89 0.89 0.0 0 0 802.04 344.95
  L 799.91 348.67
  Q 799.58 349.24 800.06 349.70
  Z"
/>
<path fill="black" d="
  M 553.69 509.57
  L 567.55 346.29
  A 0.35 0.35 0.0 0 1 567.90 345.97
  L 583.35 346.04
  A 0.35 0.35 0.0 0 1 583.70 346.39
  L 583.70 509.60
  A 0.35 0.35 0.0 0 1 583.35 509.95
  L 554.04 509.95
  A 0.35 0.35 0.0 0 1 553.69 509.57
  Z"
/>
<rect fill="black" x="594.73" y="346.01" width="12.90" height="163.76" rx="0.34"/>
<path fill="black" d="
  M 618.00 509.36
  L 618.00 346.29
  A 0.32 0.32 0.0 0 1 618.32 345.97
  L 633.80 346.07
  A 0.32 0.32 0.0 0 1 634.11 346.36
  L 647.85 509.33
  A 0.32 0.32 0.0 0 1 647.53 509.68
  L 618.32 509.68
  A 0.32 0.32 0.0 0 1 618.00 509.36
  Z"
/>
<path fill="black" d="
  M 395.96 355.25
  Q 403.25 354.79 403.39 361.72
  C 403.46 365.05 400.56 367.74 397.84 369.29
  Q 393.00 372.04 388.32 375.40
  C 387.33 376.10 385.54 376.74 384.87 375.23
  Q 384.66 374.75 384.86 374.27
  Q 385.67 372.37 384.52 370.40
  Q 381.67 365.52 378.85 360.81
  Q 377.70 358.88 375.51 359.21
  A 1.30 1.29 81.6 0 1 374.04 358.11
  Q 373.83 356.73 374.98 356.04
  Q 380.14 352.91 384.79 349.73
  C 388.54 347.17 393.37 345.59 395.51 351.04
  Q 395.77 351.70 395.64 352.40
  L 395.25 354.45
  Q 395.08 355.31 395.96 355.25
  Z
  M 384.31 354.62
  L 387.18 359.00
  A 0.72 0.72 0.0 0 0 388.18 359.21
  L 388.37 359.09
  A 2.83 2.42 56.7 0 0 388.83 355.39
  L 388.27 354.54
  A 2.83 2.42 56.7 0 0 384.70 353.50
  L 384.51 353.63
  A 0.72 0.72 0.0 0 0 384.31 354.62
  Z
  M 389.68 363.30
  L 392.83 367.33
  A 0.87 0.87 0.0 0 0 394.05 367.48
  L 394.49 367.14
  A 3.06 2.75 52.0 0 0 394.77 363.03
  L 394.32 362.45
  A 3.06 2.75 52.0 0 0 390.27 361.73
  L 389.83 362.08
  A 0.87 0.87 0.0 0 0 389.68 363.30
  Z"
/>
<path fill="black" d="
  M 829.40 363.60
  A 1.04 1.04 0.0 0 0 827.61 363.43
  L 820.61 373.32
  A 1.66 1.65 -44.5 0 0 820.59 375.19
  Q 821.06 375.88 821.20 376.65
  A 1.73 1.73 0.0 0 1 818.90 378.60
  Q 812.85 376.37 808.83 371.01
  A 1.34 1.33 76.2 0 1 810.11 368.89
  L 811.56 369.13
  A 1.76 1.75 -64.7 0 0 813.19 368.54
  Q 816.42 364.72 819.66 360.65
  Q 820.57 359.50 820.90 358.12
  A 0.68 0.68 0.0 0 0 819.97 357.33
  Q 818.07 358.16 816.03 358.37
  C 814.13 358.57 812.82 356.64 813.97 355.00
  Q 816.18 351.84 820.44 351.54
  Q 820.96 351.50 821.35 351.83
  Q 827.51 357.07 834.54 360.93
  Q 835.04 361.21 835.25 361.75
  C 836.07 363.90 835.43 370.01 831.78 369.48
  A 2.55 2.55 0.0 0 1 829.65 366.41
  Q 829.98 364.86 829.40 363.60
  Z"
/>
<path fill="black" d="
  M 367.63 366.65
  C 367.59 367.09 367.76 367.72 368.03 368.07
  Q 371.32 372.32 374.99 376.93
  C 375.85 378.01 376.97 378.19 378.23 377.85
  A 1.42 1.41 60.3 0 1 379.64 378.24
  Q 380.10 378.71 380.07 379.40
  C 379.93 382.66 372.29 387.10 370.07 387.92
  Q 368.64 388.45 367.90 387.11
  A 0.99 0.98 50.1 0 1 367.99 386.02
  C 369.56 384.02 368.23 382.73 367.05 381.00
  C 365.70 379.02 362.40 373.64 360.33 372.61
  A 0.74 0.74 0.0 0 0 359.26 373.28
  L 359.26 377.16
  A 1.92 1.91 83.3 0 1 357.79 379.03
  C 353.54 380.06 353.19 374.23 354.07 371.66
  Q 354.24 371.17 354.67 370.89
  Q 361.08 366.73 367.26 360.59
  Q 367.62 360.23 368.13 360.18
  C 370.45 359.95 375.49 361.93 374.88 365.15
  A 2.46 2.46 0.0 0 1 371.74 367.05
  L 368.52 366.07
  A 0.69 0.69 0.0 0 0 367.63 366.65
  Z"
/>
<path fill="black" d="
  M 859.88 395.43
  C 860.47 397.19 861.04 399.27 860.06 400.97
  C 856.94 406.37 850.77 404.41 847.13 400.95
  Q 842.82 396.85 838.12 393.18
  C 837.15 392.43 836.48 390.99 837.68 390.00
  A 1.35 1.35 0.0 0 1 838.77 389.72
  Q 840.49 390.03 841.55 388.93
  Q 845.44 384.88 849.10 380.94
  Q 850.99 378.89 849.97 376.66
  A 1.13 1.13 0.0 0 1 850.68 375.11
  Q 852.06 374.70 853.14 375.71
  Q 858.12 380.41 862.64 384.00
  C 867.06 387.52 866.70 393.98 860.39 394.63
  Q 859.63 394.71 859.88 395.43
  Z
  M 857.15 384.18
  L 853.79 388.10
  A 0.72 0.72 0.0 0 0 853.87 389.12
  L 854.13 389.35
  A 2.63 2.33 -49.4 0 0 857.61 388.87
  L 858.49 387.85
  A 2.63 2.33 -49.4 0 0 858.43 384.33
  L 858.16 384.11
  A 0.72 0.72 0.0 0 0 857.15 384.18
  Z
  M 850.17 391.87
  L 847.10 395.96
  A 0.86 0.86 0.0 0 0 847.27 397.16
  L 847.70 397.49
  A 2.97 2.72 -53.1 0 0 851.66 396.75
  L 852.20 396.03
  A 2.97 2.72 -53.1 0 0 851.81 392.02
  L 851.37 391.69
  A 0.86 0.86 0.0 0 0 850.17 391.87
  Z"
/>
<path fill="black" d="
  M 355.75 392.52
  Q 357.83 390.60 358.10 387.85
  A 0.94 0.94 0.0 0 1 359.39 387.08
  C 362.25 388.23 362.24 391.42 360.97 393.80
  Q 359.70 396.20 358.27 398.07
  C 350.80 407.81 333.94 402.03 336.82 388.93
  Q 338.58 380.89 346.32 378.50
  Q 347.02 378.29 347.49 377.73
  C 350.63 374.04 358.11 380.95 354.27 384.01
  C 352.29 385.57 348.69 382.71 345.81 383.97
  C 337.25 387.71 349.20 398.59 355.75 392.52
  Z"
/>
<path fill="black" d="
  M 331.71 411.02
  Q 333.95 414.31 336.81 413.71
  A 1.28 1.27 -81.6 0 1 338.19 415.57
  Q 335.62 420.28 330.84 422.76
  Q 329.65 423.37 328.77 422.37
  A 1.02 1.01 -52.2 0 1 328.63 421.23
  Q 329.39 419.71 328.20 418.46
  Q 323.60 413.66 318.94 408.89
  Q 318.33 408.26 317.50 408.54
  L 315.69 409.13
  A 1.10 1.10 0.0 0 1 314.25 408.14
  Q 314.19 406.94 315.12 406.08
  Q 319.39 402.12 323.10 397.92
  C 331.62 388.26 343.84 401.32 331.87 410.05
  Q 331.32 410.46 331.71 411.02
  Z
  M 324.46 403.42
  L 328.30 407.26
  A 1.05 1.05 0.0 0 0 329.78 407.26
  L 329.91 407.13
  A 3.35 3.35 0.0 0 0 329.91 402.39
  L 329.33 401.81
  A 3.35 3.35 0.0 0 0 324.59 401.81
  L 324.46 401.94
  A 1.05 1.05 0.0 0 0 324.46 403.42
  Z"
/>
<path fill="black" d="
  M 881.5280 417.9563
  A 12.83 12.18 44.9 0 1 863.8425 417.5276
  A 12.83 12.18 44.9 0 1 863.3520 399.8437
  A 12.83 12.18 44.9 0 1 881.0375 400.2724
  A 12.83 12.18 44.9 0 1 881.5280 417.9563
  Z
  M 869.1078 415.6660
  A 7.56 3.69 117.0 0 0 875.8278 410.6052
  A 7.56 3.69 117.0 0 0 875.9722 402.1940
  A 7.56 3.69 117.0 0 0 869.2522 407.2548
  A 7.56 3.69 117.0 0 0 869.1078 415.6660
  Z"
/>
<path fill="black" d="
  M 88.18 473.73
  A 0.34 0.34 0.0 0 0 88.72 473.96
  C 113.24 456.80 140.48 443.14 169.87 439.83
  Q 170.45 439.77 170.34 440.35
  Q 164.02 473.38 144.89 501.38
  C 132.54 519.47 116.49 536.45 100.63 551.19
  Q 78.91 571.39 59.62 589.73
  A 0.19 0.18 -27.0 0 1 59.31 589.63
  Q 53.53 557.50 49.93 526.59
  Q 46.66 498.48 47.27 473.25
  Q 47.50 463.66 49.15 452.31
  C 52.27 430.96 60.29 411.14 78.13 399.00
  Q 78.66 398.64 78.75 399.28
  L 88.18 473.73
  Z"
/>
<path fill="black" d="
  M 1112.63 476.44
  L 1122.04 402.22
  A 0.39 0.38 -69.1 0 1 1122.64 401.95
  C 1146.29 418.16 1152.61 448.04 1153.46 474.97
  Q 1154.27 500.55 1150.80 530.25
  Q 1147.13 561.73 1141.52 592.58
  A 0.23 0.23 0.0 0 1 1141.13 592.70
  Q 1121.72 574.32 1101.30 555.45
  Q 1081.67 537.31 1066.04 518.38
  C 1048.14 496.70 1035.12 470.78 1030.26 443.27
  A 0.36 0.35 -1.8 0 1 1030.65 442.86
  C 1059.88 446.54 1087.05 459.91 1111.89 476.78
  Q 1112.54 477.22 1112.63 476.44
  Z"
/>
<path fill="black" d="
  M 885.20 440.43
  Q 881.28 435.11 876.39 430.24
  C 875.18 429.03 873.55 429.22 871.97 429.24
  C 869.88 429.27 868.41 427.12 869.98 425.40
  Q 871.29 423.96 872.91 423.27
  Q 873.46 423.03 874.02 423.22
  C 875.35 423.66 876.60 424.02 878.01 423.67
  Q 883.70 422.26 889.00 420.41
  Q 891.29 419.61 892.80 418.31
  C 895.52 415.97 898.51 417.24 899.54 420.60
  Q 900.18 422.69 898.74 426.16
  Q 895.82 433.22 892.43 440.48
  Q 892.02 441.35 892.34 442.43
  C 892.82 444.07 891.25 445.48 890.23 446.59
  Q 888.81 448.12 887.28 447.63
  C 883.36 446.35 886.96 442.82 885.20 440.43
  Z
  M 881.41 426.80
  A 0.73 0.73 0.0 0 0 881.04 427.98
  L 885.32 432.99
  A 0.73 0.73 0.0 0 0 886.54 432.80
  L 889.54 425.91
  A 0.73 0.73 0.0 0 0 888.69 424.91
  L 881.41 426.80
  Z"
/>
<path fill="black" d="
  M 310.39 446.82
  C 312.23 447.61 313.56 449.92 311.77 451.60
  C 310.46 452.83 308.65 452.39 307.05 452.25
  Q 306.48 452.20 306.05 452.58
  Q 300.45 457.64 296.44 463.20
  A 2.20 2.18 -32.8 0 0 296.07 464.87
  Q 296.45 466.80 295.98 468.61
  A 2.09 2.08 -73.9 0 1 293.35 470.07
  Q 291.73 469.57 290.54 467.80
  Q 290.21 467.32 290.31 466.75
  Q 290.69 464.53 289.83 462.36
  Q 287.49 456.42 284.79 451.20
  C 283.87 449.42 281.05 447.70 281.22 445.62
  C 281.60 440.81 287.04 440.92 290.54 441.92
  Q 297.45 443.89 304.49 446.12
  C 305.30 446.38 306.07 446.35 306.90 446.17
  Q 308.42 445.84 308.68 444.31
  Q 309.01 442.37 308.36 440.73
  C 306.67 436.48 304.39 429.52 300.95 426.58
  C 297.84 423.92 300.15 419.65 303.60 419.40
  Q 306.46 419.20 309.72 420.03
  Q 316.53 421.75 323.11 423.62
  C 324.35 423.98 325.34 423.82 326.45 423.22
  Q 326.90 422.97 327.31 423.28
  Q 328.73 424.34 327.79 425.96
  Q 324.85 431.02 320.33 434.48
  A 1.23 1.23 0.0 0 1 319.06 434.63
  Q 317.87 434.10 317.99 433.01
  Q 318.32 429.77 315.83 431.89
  Q 313.76 433.66 311.92 436.27
  Q 311.30 437.16 311.87 438.01
  Q 312.21 438.52 312.78 438.30
  L 314.20 437.77
  A 1.12 1.12 0.0 0 1 315.71 438.90
  C 315.51 441.61 312.33 444.61 310.31 445.97
  Q 309.58 446.47 310.39 446.82
  Z
  M 312.17 429.38
  A 0.77 0.77 0.0 0 0 311.69 428.13
  L 307.90 427.59
  A 0.77 0.77 0.0 0 0 307.11 428.71
  L 308.74 431.83
  A 0.77 0.77 0.0 0 0 310.02 431.97
  L 312.17 429.38
  Z
  M 290.12 451.89
  L 293.08 458.84
  A 0.75 0.74 54.5 0 0 294.32 459.05
  L 298.99 453.82
  A 0.57 0.57 0.0 0 0 298.74 452.89
  C 296.46 452.17 292.79 450.70 290.41 451.31
  A 0.43 0.43 0.0 0 0 290.12 451.89
  Z"
/>
<path fill="black" d="
  M 908.50 452.25
  Q 907.37 450.65 906.02 449.13
  Q 905.02 448.00 903.89 448.97
  C 902.22 450.40 900.77 450.74 900.88 453.22
  A 1.63 1.63 0.0 0 1 898.34 454.64
  Q 893.95 451.65 891.98 446.71
  Q 891.44 445.36 892.65 444.63
  Q 893.28 444.25 893.94 444.59
  C 894.99 445.12 895.98 445.26 897.00 444.56
  Q 901.92 441.17 906.31 437.35
  C 907.13 436.63 907.46 435.87 907.30 434.77
  A 1.56 1.56 0.0 0 1 909.64 433.20
  Q 914.27 435.97 916.60 441.21
  A 1.40 1.39 58.8 0 1 916.20 442.87
  Q 915.15 443.70 914.09 443.17
  Q 913.55 442.90 912.97 443.10
  Q 911.11 443.74 909.48 445.43
  A 0.93 0.92 -42.8 0 0 909.43 446.65
  L 912.10 449.99
  Q 912.47 450.46 913.01 450.18
  Q 916.42 448.39 916.47 445.67
  A 1.63 1.63 0.0 0 1 919.06 444.38
  Q 923.44 447.56 925.18 452.10
  Q 925.80 453.71 924.25 454.44
  A 1.06 1.05 -42.9 0 1 923.29 454.41
  Q 922.60 454.02 921.81 454.00
  Q 921.22 453.99 920.75 454.33
  L 909.93 462.30
  A 1.51 1.50 -20.8 0 0 909.33 463.63
  L 909.42 464.65
  A 1.48 1.48 0.0 0 1 907.18 466.04
  C 904.81 464.59 901.25 460.95 900.59 457.77
  A 1.66 1.66 0.0 0 1 902.46 455.80
  Q 905.77 456.28 908.46 453.19
  Q 908.85 452.74 908.50 452.25
  Z"
/>
<path fill="black" d="
  M 282.82 474.74
  L 282.91 474.49
  Q 283.15 473.81 282.43 473.88
  Q 276.15 474.43 268.97 475.05
  Q 266.32 475.28 264.36 476.33
  Q 263.65 476.71 262.95 476.34
  C 261.96 475.80 261.79 474.65 262.14 473.66
  Q 264.21 467.84 268.75 464.36
  A 1.03 1.02 -24.6 0 1 270.38 464.96
  L 270.61 466.06
  A 0.65 0.64 79.4 0 0 271.33 466.56
  L 276.70 465.68
  A 0.93 0.91 82.2 0 0 277.46 464.66
  Q 277.18 462.45 275.39 460.49
  Q 275.02 460.08 274.59 460.42
  Q 273.83 461.01 272.99 461.29
  A 1.10 1.10 0.0 0 1 271.58 459.93
  Q 272.98 455.24 276.20 452.78
  A 1.23 1.23 0.0 0 1 278.17 453.71
  C 278.21 454.74 278.34 455.80 278.81 456.73
  Q 282.33 463.75 285.93 470.14
  Q 287.58 473.07 287.77 475.42
  C 288.05 478.91 285.53 483.73 281.24 482.65
  C 276.93 481.56 277.21 475.49 281.76 475.50
  Q 282.56 475.50 282.82 474.74
  Z"
/>
<path fill="black" d="
  M 931.8975 484.1491
  A 12.82 12.21 58.4 0 1 914.7804 479.6279
  A 12.82 12.21 58.4 0 1 918.4625 462.3109
  A 12.82 12.21 58.4 0 1 935.5796 466.8321
  A 12.82 12.21 58.4 0 1 931.8975 484.1491
  Z
  M 920.1946 479.0332
  A 7.63 3.61 130.6 0 0 927.9010 475.5893
  A 7.63 3.61 130.6 0 0 930.1254 467.4468
  A 7.63 3.61 130.6 0 0 922.4190 470.8907
  A 7.63 3.61 130.6 0 0 920.1946 479.0332
  Z"
/>
<path fill="black" d="
  M 258.61 481.01
  Q 258.59 479.48 260.23 479.29
  C 262.56 479.03 265.46 479.87 266.67 481.87
  Q 267.82 483.77 266.22 485.47
  A 1.39 1.38 20.8 0 1 265.23 485.91
  C 262.59 485.99 260.09 485.72 258.18 487.91
  C 252.23 494.73 270.09 500.75 271.87 489.25
  Q 272.06 488.05 271.85 486.82
  A 1.24 1.23 -83.9 0 1 273.53 485.46
  C 275.81 486.40 277.00 488.62 276.64 491.08
  C 275.88 496.25 274.44 500.43 269.72 502.99
  C 256.57 510.12 245.71 493.20 256.07 483.88
  Q 257.19 482.88 258.21 481.93
  Q 258.61 481.56 258.61 481.01
  Z"
/>
<path fill="black" d="
  M 931.59 499.35
  Q 931.48 500.25 931.66 501.12
  A 1.23 1.22 -85.0 0 1 930.01 502.51
  C 927.16 501.37 923.97 494.59 923.09 492.09
  A 1.46 1.46 0.0 0 1 925.14 490.31
  L 926.57 491.05
  Q 926.99 491.27 927.44 491.15
  Q 928.28 490.92 929.06 490.58
  Q 934.93 488.03 940.21 484.71
  A 1.91 1.90 -15.1 0 0 941.11 483.15
  L 941.15 481.54
  A 0.76 0.75 -5.5 0 1 941.74 480.83
  Q 943.69 480.39 944.67 482.39
  Q 948.73 490.68 952.40 495.62
  C 954.19 498.04 951.28 501.50 949.29 502.73
  C 947.68 503.74 945.51 502.86 945.39 500.85
  C 945.20 497.60 949.09 496.41 945.91 492.53
  C 944.69 491.04 942.97 491.93 941.65 492.66
  Q 936.79 495.37 932.40 498.08
  Q 931.69 498.52 931.59 499.35
  Z"
/>
<path fill="black" d="
  M 245.5760 529.2211
  A 12.83 12.18 115.8 0 1 240.1941 512.3689
  A 12.83 12.18 115.8 0 1 256.7440 506.1189
  A 12.83 12.18 115.8 0 1 262.1259 522.9711
  A 12.83 12.18 115.8 0 1 245.5760 529.2211
  Z
  M 258.5140 518.5252
  A 7.51 3.71 7.0 0 0 251.5121 513.9277
  A 7.51 3.71 7.0 0 0 243.6060 516.6948
  A 7.51 3.71 7.0 0 0 250.6079 521.2923
  A 7.51 3.71 7.0 0 0 258.5140 518.5252
  Z"
/>
<path fill="black" d="
  M 955.3700 530.1867
  A 12.68 12.09 68.0 0 1 939.4103 522.9590
  A 12.68 12.09 68.0 0 1 945.8700 506.6733
  A 12.68 12.09 68.0 0 1 961.8297 513.9010
  A 12.68 12.09 68.0 0 1 955.3700 530.1867
  Z
  M 956.3891 513.7433
  A 7.54 3.69 -40.9 0 0 948.2740 515.8909
  A 7.54 3.69 -40.9 0 0 944.9909 523.6167
  A 7.54 3.69 -40.9 0 0 953.1060 521.4691
  A 7.54 3.69 -40.9 0 0 956.3891 513.7433
  Z"
/>
<path fill="black" d="
  M 61.21 623.23
  Q 89.95 579.95 132.38 551.12
  Q 133.32 550.49 133.39 551.61
  Q 135.25 580.61 125.12 604.97
  Q 116.15 626.53 103.34 646.34
  C 87.71 670.51 72.64 692.46 61.26 717.42
  A 0.16 0.16 0.0 0 1 60.99 717.45
  Q 41.38 690.96 27.12 662.41
  C 17.19 642.53 9.76 620.10 7.69 597.75
  Q 4.04 558.39 23.78 522.74
  Q 24.23 521.92 24.36 522.85
  C 27.30 545.46 34.78 565.94 44.68 586.60
  Q 54.33 606.73 60.69 623.17
  Q 60.89 623.71 61.21 623.23
  Z"
/>
<path fill="black" d="
  M 1139.39 626.48
  A 0.24 0.24 0.0 0 0 1139.82 626.43
  C 1146.23 609.47 1154.43 592.99 1161.63 576.96
  Q 1172.77 552.15 1176.18 526.04
  Q 1176.31 525.04 1176.80 525.92
  Q 1203.28 573.95 1187.71 628.97
  Q 1181.59 650.60 1170.36 671.85
  Q 1157.22 696.70 1139.77 720.39
  Q 1139.43 720.85 1139.19 720.34
  C 1125.98 691.95 1107.14 665.65 1091.42 639.93
  C 1075.32 613.59 1064.11 584.88 1067.35 554.16
  A 0.26 0.26 0.0 0 1 1067.75 553.97
  Q 1110.70 583.16 1139.39 626.48
  Z"
/>
<path fill="black" d="
  M 243.67 551.91
  Q 237.78 548.75 231.94 546.66
  Q 230.08 546.00 228.73 547.44
  A 1.21 1.20 -39.6 0 1 226.83 547.27
  C 226.15 546.19 226.42 544.61 226.96 543.53
  Q 230.48 536.48 232.27 529.43
  Q 232.42 528.85 232.94 528.55
  Q 235.70 526.96 238.91 527.92
  C 241.85 528.81 241.50 532.36 238.67 533.08
  C 235.71 533.82 233.72 533.88 233.17 537.51
  Q 232.97 538.77 234.13 539.30
  Q 239.55 541.80 245.75 543.93
  C 248.16 544.76 248.04 542.46 249.61 542.28
  Q 250.73 542.15 251.10 543.18
  C 252.02 545.79 248.87 552.27 247.62 554.40
  A 2.43 2.42 5.8 0 1 246.29 555.48
  Q 245.41 555.78 244.78 555.16
  Q 244.39 554.78 244.46 554.24
  Q 244.55 553.54 244.42 552.92
  A 1.49 1.49 0.0 0 0 243.67 551.91
  Z"
/>
<path fill="black" d="
  M 802.99 604.43
  Q 803.34 605.40 804.18 606.00
  Q 806.86 607.92 810.03 609.41
  C 815.69 612.06 813.21 618.93 808.40 620.73
  Q 801.40 623.34 793.65 623.52
  C 788.01 623.65 754.11 624.91 759.23 611.56
  Q 759.46 610.97 760.03 610.70
  Q 762.85 609.33 765.68 608.29
  C 767.34 607.69 768.66 606.31 769.15 604.57
  Q 770.42 600.07 770.60 595.51
  Q 771.32 576.90 771.73 561.32
  C 771.79 559.07 771.50 554.72 769.66 553.15
  C 767.93 551.67 765.65 552.74 764.40 554.40
  C 761.17 558.67 757.19 565.03 752.02 566.56
  C 744.92 568.66 740.83 562.05 741.87 555.80
  Q 743.99 543.04 752.81 535.79
  C 754.87 534.09 757.84 533.79 760.42 534.41
  Q 765.46 535.64 770.68 535.68
  Q 787.25 535.79 802.73 535.83
  Q 809.41 535.85 816.15 534.33
  C 820.30 533.40 824.03 536.67 826.54 539.77
  Q 832.14 546.69 832.76 555.70
  C 833.14 561.09 830.86 566.05 824.98 566.87
  C 817.22 567.96 813.84 561.25 810.59 555.48
  C 809.45 553.45 807.26 551.93 804.93 553.06
  C 802.17 554.39 802.16 558.31 802.16 560.96
  Q 802.16 578.56 802.18 599.65
  Q 802.18 602.14 802.99 604.43
  Z"
/>
<path fill="black" d="
  M 505.25 549.38
  Q 501.59 550.16 500.64 554.92
  Q 499.91 558.56 499.86 561.78
  Q 499.60 580.29 499.82 600.76
  C 499.86 603.77 500.34 606.58 503.26 608.22
  Q 505.89 609.70 508.48 610.55
  C 510.13 611.10 511.38 612.90 511.57 614.57
  C 512.14 619.51 507.11 621.41 503.22 622.00
  Q 485.46 624.70 467.73 622.45
  C 463.23 621.88 459.24 619.20 460.10 613.95
  C 460.88 609.22 467.63 610.09 469.05 605.43
  C 470.18 601.71 470.69 597.75 470.80 593.82
  Q 471.28 577.11 471.36 561.22
  C 471.38 556.83 471.55 550.44 467.70 547.65
  C 464.98 545.68 460.44 545.22 461.64 540.57
  C 463.13 534.81 470.66 534.68 475.49 535.02
  Q 495.56 536.43 511.47 536.18
  Q 518.23 536.08 527.22 534.53
  C 531.36 533.82 534.74 534.49 537.61 537.56
  Q 546.15 546.73 545.75 557.73
  C 545.36 568.36 532.76 570.25 527.61 561.89
  Q 525.43 558.34 523.29 555.11
  C 519.12 548.81 512.19 547.89 505.25 549.38
  Z"
/>
<path fill="black" d="
  M 621.15 549.87
  C 621.09 545.60 613.16 546.20 612.69 542.48
  C 611.53 533.15 632.23 534.34 637.34 534.58
  Q 642.63 534.81 646.55 536.42
  C 650.19 537.90 651.15 543.19 647.35 545.53
  Q 641.68 549.03 638.58 554.55
  Q 624.13 580.24 609.66 605.92
  C 603.02 617.70 591.74 627.83 577.42 624.60
  C 560.41 620.76 557.44 596.03 577.14 594.33
  Q 584.01 593.74 587.85 599.83
  Q 589.54 602.52 592.71 602.58
  Q 593.43 602.59 594.02 602.28
  Q 596.64 600.92 594.75 598.65
  Q 576.72 577.07 559.15 556.08
  Q 554.27 550.25 549.50 548.69
  Q 546.78 547.80 546.49 544.93
  C 545.84 538.36 552.08 536.69 557.28 535.89
  Q 574.60 533.21 589.48 536.47
  C 597.36 538.20 599.32 543.26 593.91 549.46
  A 1.52 1.52 0.0 0 0 593.55 550.57
  Q 593.72 552.66 595.27 554.60
  Q 600.19 560.74 605.35 565.93
  Q 607.11 567.70 609.13 568.96
  A 1.25 1.25 0.0 0 0 610.21 569.08
  C 614.97 567.41 619.83 555.07 621.06 550.54
  A 2.57 2.52 -38.0 0 0 621.15 549.87
  Z"
/>
<path fill="black" d="
  M 724.61 572.35
  C 723.29 573.89 724.36 575.51 725.91 576.19
  C 735.50 580.37 742.01 588.24 740.27 599.23
  C 737.58 616.15 722.81 623.35 706.83 622.78
  C 695.13 622.36 683.36 621.91 671.58 622.49
  Q 664.91 622.81 658.76 622.72
  C 654.63 622.66 649.99 619.05 651.76 614.39
  Q 652.32 612.91 653.70 612.00
  C 658.45 608.85 659.49 604.89 659.64 599.50
  Q 660.17 579.35 661.08 557.75
  Q 661.17 555.53 660.12 552.26
  C 659.20 549.40 656.86 547.65 654.33 546.41
  C 651.97 545.27 650.69 542.77 651.38 540.23
  C 652.88 534.65 659.85 534.49 664.99 534.79
  C 675.29 535.38 686.36 536.15 696.93 535.11
  C 704.60 534.35 712.36 534.58 719.71 537.11
  C 732.27 541.44 736.76 555.50 729.81 566.62
  C 728.41 568.85 726.30 570.37 724.61 572.35
  Z
  M 698.07 571.33
  C 703.53 568.97 703.71 560.68 702.63 555.43
  C 701.59 550.40 698.48 546.73 692.86 547.94
  Q 691.76 548.18 691.31 549.21
  Q 690.64 550.75 690.58 552.39
  Q 690.24 560.45 690.65 568.78
  C 690.86 572.95 695.45 572.47 698.07 571.33
  Z
  M 699.95 585.39
  C 697.00 584.13 690.40 583.23 690.29 588.04
  Q 690.12 596.14 691.10 604.74
  Q 691.66 609.62 696.25 609.66
  Q 705.19 609.73 705.97 600.54
  C 706.44 595.08 705.58 587.81 699.95 585.39
  Z"
/>
<path fill="black" d="
  M 442.60 575.34
  Q 443.11 575.84 443.78 576.14
  C 454.66 581.06 460.67 589.71 457.54 601.99
  C 453.31 618.65 437.34 623.62 422.00 622.79
  C 406.15 621.92 391.94 622.42 376.96 622.78
  C 370.96 622.92 365.56 615.60 372.15 611.53
  C 376.22 609.02 377.61 604.13 377.81 599.47
  Q 378.67 579.06 379.33 558.33
  Q 379.59 550.21 373.01 546.98
  C 369.31 545.15 368.28 541.10 371.09 537.95
  C 372.76 536.07 375.58 535.24 378.05 535.17
  C 390.29 534.88 402.26 536.64 414.52 535.51
  C 424.67 534.57 438.88 534.54 446.37 542.96
  C 452.72 550.10 452.32 562.42 445.47 569.15
  Q 443.88 570.72 442.48 572.34
  A 2.19 2.18 -47.4 0 0 442.60 575.34
  Z
  M 419.65 552.69
  Q 417.65 547.45 411.86 547.71
  C 409.71 547.81 408.68 549.31 408.57 551.40
  Q 408.00 561.63 408.63 569.28
  C 408.98 573.57 415.19 572.09 417.31 570.57
  C 422.20 567.04 421.45 557.42 419.65 552.69
  Z
  M 418.52 585.64
  C 415.86 584.26 409.63 583.12 408.56 587.16
  Q 408.41 587.73 408.33 591.39
  Q 408.20 598.03 408.99 604.74
  Q 409.59 609.84 414.67 609.67
  Q 422.51 609.41 423.65 601.89
  C 424.47 596.58 423.82 588.38 418.52 585.64
  Z"
/>
<path fill="black" d="
  M 970.50 548.37
  A 0.84 0.84 0.0 0 0 970.08 547.05
  C 968.32 546.51 965.48 545.87 965.15 543.72
  A 1.89 1.89 0.0 0 1 966.58 541.60
  Q 970.08 540.77 973.63 542.89
  Q 974.09 543.17 974.13 543.70
  Q 974.31 546.03 975.11 548.06
  Q 977.00 552.87 979.66 558.45
  Q 979.91 558.99 979.78 559.57
  C 979.22 561.94 974.71 566.81 972.28 563.70
  C 970.61 561.57 972.74 559.87 973.85 558.31
  A 1.05 1.05 0.0 0 0 973.49 556.78
  Q 972.82 556.42 972.06 556.67
  Q 966.17 558.60 960.86 560.47
  Q 960.10 560.74 959.93 561.52
  L 959.47 563.57
  A 1.20 1.20 0.0 0 1 958.10 564.49
  C 954.68 563.94 953.04 555.44 952.80 552.65
  Q 952.72 551.75 953.26 551.01
  Q 953.72 550.39 954.48 550.36
  Q 955.08 550.34 955.44 550.82
  Q 956.89 552.76 959.24 552.03
  Q 964.29 550.45 969.16 549.23
  Q 970.01 549.01 970.50 548.37
  Z"
/>
<path fill="black" d="
  M 229.10 580.62
  Q 230.13 583.81 232.16 586.40
  Q 232.46 586.78 232.94 586.86
  C 234.11 587.03 234.89 586.15 235.94 586.23
  Q 237.62 586.36 237.63 588.10
  C 237.65 590.72 236.71 595.34 234.53 597.39
  A 1.43 1.43 0.0 0 1 232.13 596.41
  Q 232.06 594.78 230.53 594.25
  Q 224.79 592.29 218.97 590.92
  Q 217.33 590.53 216.33 591.86
  A 0.96 0.95 26.7 0 1 215.28 592.20
  Q 213.72 591.72 213.74 589.91
  C 213.77 587.10 214.55 581.72 216.82 579.96
  Q 217.23 579.64 217.74 579.72
  Q 219.31 579.98 219.39 581.57
  Q 219.45 582.66 220.50 582.98
  L 224.66 584.24
  Q 226.09 584.67 225.70 583.23
  Q 224.89 580.28 222.62 577.31
  A 1.47 1.47 0.0 0 0 220.76 576.91
  L 219.93 577.36
  A 1.83 1.83 0.0 0 1 217.23 575.66
  Q 217.50 570.59 219.98 566.83
  A 1.67 1.67 0.0 0 1 223.01 567.46
  C 223.20 568.52 223.87 569.06 224.85 569.37
  Q 230.19 571.06 235.87 573.21
  C 237.09 573.67 238.29 573.41 239.12 572.39
  Q 239.50 571.92 240.09 572.08
  C 243.67 573.10 240.49 581.91 238.56 583.92
  Q 238.05 584.45 237.35 584.22
  Q 236.18 583.84 235.78 582.66
  Q 235.32 581.30 233.94 580.87
  L 230.04 579.67
  Q 228.66 579.25 229.10 580.62
  Z"
/>
<path fill="black" d="
  M 970.02 580.87
  Q 966.17 581.27 965.44 583.98
  A 1.39 1.39 0.0 0 1 962.92 584.35
  C 961.68 582.36 958.77 575.32 960.49 573.28
  Q 960.92 572.78 961.58 572.77
  Q 962.10 572.77 962.42 573.20
  C 963.06 574.06 964.09 574.55 965.17 574.25
  Q 971.92 572.39 978.42 570.53
  A 1.07 1.05 82.8 0 0 979.19 569.52
  L 979.20 567.53
  A 0.68 0.68 0.0 0 1 979.68 566.88
  Q 981.43 566.35 981.96 568.16
  Q 983.80 574.47 985.69 579.56
  Q 986.75 582.41 985.90 585.64
  C 984.66 590.32 978.65 592.22 974.88 589.29
  Q 971.41 586.60 970.95 581.63
  Q 970.87 580.78 970.02 580.87
  Z
  M 980.78 577.70
  L 975.19 579.45
  A 0.94 0.94 0.0 0 0 974.58 580.63
  L 974.66 580.90
  A 3.51 3.34 -17.4 0 0 979.01 583.03
  L 979.70 582.82
  A 3.51 3.34 -17.4 0 0 982.05 578.58
  L 981.96 578.31
  A 0.94 0.94 0.0 0 0 980.78 577.70
  Z"
/>
<path fill="black" d="
  M 211.47 577.25
  Q 211.61 574.71 211.44 571.79
  A 0.92 0.92 0.0 0 1 211.92 570.92
  Q 212.69 570.52 213.17 571.05
  C 215.79 573.94 215.28 575.28 214.70 578.46
  Q 214.47 579.75 213.75 580.70
  Q 211.51 583.66 209.50 583.60
  Q 207.26 583.53 208.65 581.78
  C 209.68 580.47 211.37 578.97 211.47 577.25
  Z"
/>
<path fill="black" d="
  M 973.17 619.33
  Q 971.75 618.81 971.14 616.89
  Q 969.72 612.45 969.19 608.22
  Q 968.98 606.49 970.48 605.81
  Q 971.08 605.54 971.53 606.02
  L 972.20 606.75
  A 1.10 1.10 0.0 0 0 974.10 605.97
  Q 973.99 602.47 972.73 599.28
  Q 972.24 598.04 970.97 598.54
  Q 970.48 598.73 970.44 599.26
  L 970.35 600.33
  Q 970.31 600.91 969.75 601.07
  Q 968.49 601.43 967.83 600.12
  Q 965.88 596.27 966.17 592.71
  Q 966.28 591.36 967.69 591.24
  Q 968.24 591.19 968.54 591.66
  Q 969.58 593.30 971.87 593.96
  Q 981.45 596.69 987.20 596.04
  C 990.20 595.70 992.05 598.27 991.35 600.95
  Q 990.68 603.51 988.06 605.78
  Q 982.31 610.77 975.11 616.36
  Q 974.43 616.89 974.74 618.11
  A 1.00 0.99 60.4 0 1 974.48 619.06
  L 974.27 619.27
  A 0.29 0.29 0.0 0 0 974.24 619.63
  C 976.10 622.36 977.86 621.74 981.13 621.44
  Q 985.70 621.02 990.18 620.08
  Q 990.80 619.96 991.09 619.39
  L 991.65 618.31
  A 1.46 1.46 0.0 0 1 994.23 618.28
  Q 996.91 623.26 996.13 628.72
  A 1.67 1.67 0.0 0 1 993.30 629.67
  Q 991.40 627.79 987.94 628.83
  Q 987.41 628.99 987.43 629.55
  L 987.65 634.19
  A 0.71 0.70 90.0 0 0 988.32 634.87
  Q 990.56 635.00 992.46 634.04
  Q 992.96 633.80 993.15 633.28
  Q 993.78 631.57 995.61 632.00
  Q 996.10 632.12 996.30 632.58
  C 997.62 635.45 998.50 640.02 997.42 643.24
  Q 997.25 643.73 996.78 643.91
  Q 995.13 644.55 994.12 642.95
  A 1.11 1.09 71.3 0 0 993.09 642.43
  Q 986.21 643.05 979.50 644.44
  Q 978.77 644.59 978.40 645.22
  L 977.88 646.11
  A 1.53 1.52 -43.0 0 1 975.19 646.02
  Q 972.98 641.55 973.77 635.85
  A 1.74 1.74 0.0 0 1 976.55 634.70
  Q 978.99 636.56 983.07 635.43
  A 0.76 0.75 79.2 0 0 983.62 634.62
  L 983.12 630.35
  Q 983.04 629.72 982.42 629.61
  Q 978.08 628.84 976.33 631.52
  A 1.52 1.51 40.3 0 1 973.95 631.71
  C 971.91 629.48 971.78 624.38 972.04 621.64
  Q 972.15 620.39 973.21 619.75
  Q 973.63 619.50 973.17 619.33
  Z
  M 977.45 599.77
  A 0.81 0.81 0.0 0 0 976.69 600.87
  L 977.71 603.48
  A 0.81 0.81 0.0 0 0 979.01 603.78
  L 981.86 601.17
  A 0.81 0.81 0.0 0 0 981.32 599.77
  L 977.45 599.77
  Z"
/>
<path fill="black" d="
  M 218.71 613.75
  A 0.71 0.71 0.0 0 0 219.34 612.77
  Q 218.24 610.20 216.07 607.55
  Q 214.71 605.89 213.12 607.17
  A 1.82 1.81 -24.3 0 1 210.20 606.07
  Q 209.29 600.83 211.67 596.83
  Q 212.49 595.46 213.98 595.99
  A 1.09 1.07 3.6 0 1 214.68 596.77
  Q 215.02 598.30 216.48 598.62
  Q 222.11 599.87 228.22 601.10
  C 229.21 601.30 230.32 601.38 231.03 600.44
  A 1.64 1.64 0.0 0 1 233.95 601.06
  Q 235.10 606.23 232.51 611.21
  A 1.56 1.56 0.0 0 1 229.80 611.30
  Q 227.81 608.07 222.76 608.59
  A 0.65 0.65 0.0 0 0 222.23 609.48
  Q 223.54 612.58 225.81 615.02
  A 1.84 1.83 49.7 0 0 228.27 615.23
  Q 229.79 614.07 231.11 615.28
  Q 231.49 615.63 231.55 616.13
  Q 232.18 621.09 229.97 625.44
  C 229.54 626.28 228.63 626.76 227.69 626.42
  Q 227.17 626.24 227.05 625.70
  Q 226.63 623.83 224.87 623.39
  Q 219.72 622.09 213.49 621.33
  Q 211.49 621.09 210.49 622.53
  Q 210.26 622.86 209.86 622.87
  Q 208.11 622.88 207.87 621.09
  Q 207.11 615.60 209.35 611.02
  A 1.59 1.58 -45.8 0 1 212.18 610.98
  L 212.86 612.28
  Q 213.13 612.78 213.66 612.96
  Q 216.24 613.83 218.71 613.75
  Z"
/>
<path fill="black" d="
  M 211.79 642.65
  Q 209.46 638.63 206.31 638.88
  A 1.40 1.40 0.0 0 1 204.83 637.75
  Q 203.98 633.30 205.43 628.87
  Q 205.93 627.35 207.51 627.55
  L 207.83 627.59
  Q 209.09 627.75 208.80 628.99
  Q 207.91 632.75 211.31 635.81
  Q 212.70 637.05 214.26 635.99
  Q 219.36 632.50 223.85 629.23
  Q 224.81 628.54 225.43 627.52
  A 1.90 1.90 0.0 0 1 228.56 627.36
  Q 229.16 628.16 229.03 629.22
  Q 228.59 632.75 228.20 636.14
  A 1.03 1.00 76.1 0 1 227.78 636.86
  L 220.16 642.40
  Q 219.21 643.08 220.16 643.77
  Q 220.29 643.87 220.44 643.97
  Q 222.07 645.15 224.21 643.42
  Q 225.73 642.20 226.74 643.75
  C 228.09 645.82 226.71 652.22 225.79 654.55
  A 1.45 1.45 0.0 0 1 223.32 654.93
  L 222.21 653.56
  A 1.30 1.30 0.0 0 0 221.52 653.11
  Q 214.76 651.29 207.52 651.48
  A 1.39 1.36 -66.8 0 0 206.60 651.86
  L 205.92 652.50
  A 1.58 1.58 0.0 0 1 203.28 651.66
  Q 202.30 646.80 204.08 642.16
  A 1.74 1.73 -53.3 0 1 207.07 641.72
  Q 208.72 643.86 211.47 643.36
  Q 212.13 643.23 211.79 642.65
  Z"
/>
<path fill="black" d="
  M 990.57 656.36
  Q 985.86 656.85 983.63 659.20
  C 981.05 661.92 980.91 666.48 983.90 669.23
  A 1.39 1.38 -25.6 0 1 983.05 671.63
  C 980.77 671.78 978.39 670.82 977.61 668.48
  C 976.96 666.55 975.70 664.76 975.46 662.74
  C 974.53 655.14 979.62 647.71 987.73 648.00
  C 994.43 648.24 999.09 654.11 999.78 660.50
  C 1000.06 663.08 998.68 665.25 998.74 667.89
  Q 998.75 668.67 998.17 669.20
  C 995.81 671.33 989.43 672.92 989.55 667.89
  A 1.86 1.86 0.0 0 1 990.39 666.39
  Q 992.76 664.84 994.02 662.88
  C 995.86 660.02 994.53 655.95 990.57 656.36
  Z"
/>
<path fill="black" d="
  M 73.85 750.07
  L 123.15 657.40
  A 0.22 0.22 0.0 0 1 123.55 657.42
  Q 133.34 683.06 131.80 710.80
  C 130.89 727.28 127.52 744.02 123.42 759.95
  C 115.40 791.14 107.09 821.56 102.58 853.56
  Q 102.54 853.85 102.30 853.68
  Q 72.41 832.41 48.34 805.87
  Q 31.39 787.18 20.25 766.41
  Q -9.16 711.60 11.67 652.62
  Q 11.95 651.83 12.21 652.63
  Q 20.00 675.78 30.58 696.83
  C 41.04 717.64 54.40 736.65 73.35 750.19
  A 0.35 0.34 -57.8 0 0 73.85 750.07
  Z"
/>
<path fill="black" d="
  M 487.36 1006.83
  Q 472.98 1000.96 458.96 996.61
  C 419.60 984.39 379.40 973.78 343.32 953.79
  C 278.46 917.86 259.76 833.95 261.86 765.89
  Q 261.87 765.51 262.22 765.67
  L 401.38 828.82
  Q 401.91 829.06 402.08 829.63
  C 408.04 849.49 417.21 870.25 432.33 884.42
  C 437.92 889.65 445.00 894.14 452.36 895.89
  C 477.53 901.88 494.33 879.61 502.92 858.93
  Q 505.57 852.54 507.74 843.37
  C 522.03 782.81 531.79 716.51 539.01 653.63
  Q 539.08 653.00 539.71 653.00
  L 583.26 653.00
  Q 583.77 653.00 583.77 653.51
  L 583.77 1085.27
  Q 583.77 1086.12 583.28 1085.42
  Q 571.49 1068.40 556.73 1053.23
  Q 527.58 1023.26 487.36 1006.83
  Z"
/>
<rect fill="black" x="594.53" y="652.99" width="12.94" height="463.74" rx="0.34"/>
<path fill="black" d="
  M 939.73 766.27
  C 941.97 832.57 923.92 914.32 862.39 951.63
  Q 852.82 957.43 839.50 963.49
  Q 814.53 974.85 786.80 983.26
  Q 764.38 990.07 742.41 996.92
  Q 732.01 1000.16 720.85 1004.40
  Q 680.21 1019.84 651.78 1046.70
  C 639.18 1058.60 628.07 1071.59 618.31 1085.61
  Q 617.81 1086.33 617.81 1085.45
  L 617.81 653.22
  A 0.22 0.22 0.0 0 1 618.03 653.00
  L 662.06 653.00
  A 0.73 0.73 0.0 0 1 662.79 653.65
  Q 671.60 733.34 686.29 808.17
  Q 688.86 821.26 693.52 841.36
  Q 696.23 853.08 699.40 860.38
  C 707.56 879.19 723.38 900.36 746.76 896.37
  C 775.38 891.49 792.22 854.53 799.58 829.58
  Q 799.73 829.05 800.24 828.82
  L 939.23 765.96
  Q 939.71 765.75 939.73 766.27
  Z"
/>
<path fill="black" d="
  M 1127.44 753.44
  C 1146.05 740.46 1159.47 721.07 1170.05 700.07
  Q 1180.11 680.12 1188.36 656.05
  Q 1188.62 655.28 1188.89 656.05
  Q 1208.88 712.76 1182.60 765.48
  C 1164.34 802.12 1132.56 832.35 1098.52 856.90
  Q 1098.04 857.24 1097.95 856.66
  Q 1093.97 829.11 1087.13 802.23
  Q 1082.61 784.44 1078.21 767.72
  Q 1071.23 741.19 1069.08 718.51
  Q 1066.38 689.97 1076.93 661.04
  Q 1077.31 660.00 1077.82 660.98
  L 1126.56 753.23
  Q 1126.88 753.83 1127.44 753.44
  Z"
/>
<path fill="black" d="
  M 206.85 665.89
  C 205.06 673.81 216.10 672.04 218.81 667.99
  Q 221.72 663.62 218.15 658.89
  A 0.86 0.85 -52.8 0 1 218.04 658.04
  C 218.92 656.00 221.82 657.34 223.02 658.23
  Q 224.19 659.08 224.52 660.62
  C 224.99 662.82 226.04 664.64 226.09 666.98
  Q 226.24 673.57 221.37 677.67
  C 216.77 681.52 210.17 681.25 205.93 676.98
  C 202.21 673.24 200.27 667.52 202.68 662.55
  C 203.31 661.24 203.32 660.15 203.51 658.78
  Q 203.59 658.20 204.03 657.81
  C 206.00 656.05 211.09 654.89 212.53 658.16
  A 2.45 2.44 62.5 0 1 211.56 661.24
  C 209.85 662.27 207.31 663.83 206.85 665.89
  Z"
/>
<path fill="black" d="
  M 996.68 686.57
  Q 996.57 684.53 994.53 684.56
  Q 988.55 684.63 982.47 684.49
  C 981.24 684.46 980.74 685.06 979.91 685.81
  A 1.66 1.66 0.0 0 1 977.19 684.98
  Q 975.74 679.29 977.50 674.72
  Q 977.95 673.57 979.18 673.70
  A 1.42 1.41 79.4 0 1 980.29 674.46
  Q 981.22 676.27 983.26 676.29
  Q 988.85 676.33 995.28 676.36
  Q 995.96 676.36 996.36 675.80
  L 996.90 675.06
  A 1.60 1.60 0.0 0 1 999.74 675.54
  Q 1000.55 678.27 1000.61 681.27
  Q 1000.77 689.09 1000.50 697.72
  Q 1000.44 699.42 999.37 700.80
  A 1.56 1.55 -39.0 0 1 996.75 700.53
  C 996.30 699.62 995.62 698.99 994.56 698.99
  Q 987.97 699.01 981.44 698.99
  A 1.16 1.14 16.6 0 0 980.48 699.50
  L 980.17 699.95
  A 1.67 1.67 0.0 0 1 977.20 699.49
  Q 975.71 694.60 977.24 689.57
  A 1.70 1.70 0.0 0 1 980.18 688.98
  Q 981.64 690.76 984.09 690.80
  Q 989.82 690.90 994.99 690.92
  Q 996.91 690.93 996.81 689.01
  L 996.68 686.57
  Z"
/>
<path fill="black" d="
  M 209.34 706.02
  Q 206.58 705.12 204.62 706.73
  A 1.78 1.77 -26.3 0 1 201.77 705.77
  Q 200.89 702.06 201.30 698.19
  A 1.71 1.70 20.9 0 1 203.99 696.99
  Q 206.12 698.52 208.87 697.62
  A 0.43 0.43 0.0 0 0 209.07 696.94
  C 207.76 695.27 205.43 693.84 203.17 694.00
  C 201.02 694.15 200.92 691.60 200.76 690.08
  C 200.54 688.01 200.08 682.62 203.41 682.88
  Q 204.13 682.94 204.23 683.65
  L 204.63 686.51
  Q 204.71 687.05 205.04 687.47
  Q 206.34 689.09 207.90 690.56
  Q 209.22 691.81 210.63 690.64
  C 214.16 687.72 218.62 684.79 220.90 680.97
  A 1.63 1.63 0.0 0 1 223.40 680.61
  Q 224.30 681.44 224.29 683.19
  Q 224.25 686.54 224.27 689.55
  Q 224.27 690.27 223.68 690.68
  L 217.54 694.99
  Q 216.30 695.85 217.68 696.48
  Q 218.71 696.94 219.98 696.79
  A 1.62 1.62 0.0 0 0 221.11 696.13
  C 222.25 694.51 223.95 695.33 224.54 696.84
  Q 226.54 702.01 225.27 706.81
  A 1.79 1.79 0.0 0 1 222.29 707.63
  Q 220.71 706.10 218.45 706.95
  A 0.84 0.83 50.4 0 0 218.31 708.44
  L 224.75 712.43
  Q 225.24 712.73 225.24 713.31
  C 225.25 715.29 225.72 720.15 224.62 721.65
  A 1.61 1.61 0.0 0 1 222.03 721.65
  C 221.30 720.65 220.80 719.66 219.77 718.89
  Q 215.85 715.94 211.46 712.59
  C 210.25 711.67 209.08 712.34 208.15 713.25
  Q 204.91 716.43 205.32 719.63
  Q 205.46 720.68 204.42 720.85
  Q 203.96 720.93 203.58 720.71
  Q 202.26 719.94 201.92 718.21
  C 201.55 716.36 200.78 709.66 203.83 709.78
  Q 207.20 709.91 209.56 706.66
  Q 209.90 706.20 209.34 706.02
  Z"
/>
<path fill="black" d="
  M 985.9109 728.2889
  A 12.80 12.19 95.6 0 1 975.0282 714.3605
  A 12.80 12.19 95.6 0 1 988.4091 702.8111
  A 12.80 12.19 95.6 0 1 999.2918 716.7395
  A 12.80 12.19 95.6 0 1 985.9109 728.2889
  Z
  M 994.4584 714.1593
  A 7.52 3.68 -11.9 0 0 986.3412 712.1091
  A 7.52 3.68 -11.9 0 0 979.7416 717.2607
  A 7.52 3.68 -11.9 0 0 987.8588 719.3109
  A 7.52 3.68 -11.9 0 0 994.4584 714.1593
  Z"
/>
<path fill="black" d="
  M 216.78 741.61
  A 0.80 0.79 -57.1 0 0 217.05 742.89
  Q 221.03 744.56 224.88 745.33
  Q 226.23 745.61 226.36 744.23
  Q 226.44 743.47 227.17 742.96
  A 1.09 1.08 59.5 0 1 228.77 743.38
  Q 230.73 747.34 229.89 751.69
  Q 229.64 752.98 228.29 753.01
  A 1.08 1.07 -13.5 0 1 227.31 752.42
  C 226.81 751.44 226.10 750.59 225.04 750.21
  Q 220.11 748.49 214.67 746.93
  Q 211.80 746.11 209.26 746.35
  C 206.89 746.58 204.97 745.37 204.75 742.84
  C 204.49 739.96 207.10 737.64 209.22 736.21
  Q 215.21 732.19 222.02 728.08
  C 222.93 727.53 223.53 726.80 223.49 725.74
  A 1.01 1.01 0.0 0 1 224.93 724.80
  C 227.68 726.12 227.86 733.99 227.98 736.74
  Q 228.06 738.49 226.32 738.68
  Q 225.75 738.74 225.43 738.28
  L 224.93 737.59
  Q 224.59 737.12 224.05 737.36
  L 218.90 739.67
  Q 218.40 739.89 218.03 740.28
  L 216.78 741.61
  Z"
/>
<path fill="black" d="
  M 981.60 741.27
  L 977.97 740.80
  A 1.24 1.22 -64.1 0 0 976.90 741.18
  L 975.76 742.39
  A 1.28 1.27 -29.0 0 1 973.58 741.77
  C 973.09 739.32 972.97 732.08 975.36 730.44
  Q 976.00 730.00 976.69 730.32
  Q 977.19 730.55 977.33 731.08
  C 977.59 732.04 978.20 732.93 979.28 733.04
  Q 986.10 733.77 992.47 734.51
  Q 993.15 734.59 993.50 734.01
  L 994.30 732.70
  A 1.01 1.01 0.0 0 1 995.23 732.22
  Q 995.93 732.27 996.40 732.76
  Q 996.86 733.24 996.82 733.90
  Q 996.38 740.65 996.17 746.58
  C 996.01 751.32 992.09 755.39 987.12 754.29
  C 981.33 753.01 980.38 746.82 981.99 741.90
  A 0.48 0.48 0.0 0 0 981.60 741.27
  Z
  M 991.77 742.38
  L 985.97 741.66
  A 0.82 0.82 0.0 0 0 985.06 742.37
  L 984.98 743.04
  A 3.15 3.06 7.1 0 0 987.72 746.47
  L 988.89 746.62
  A 3.15 3.06 7.1 0 0 992.40 743.97
  L 992.48 743.29
  A 0.82 0.82 0.0 0 0 991.77 742.38
  Z"
/>
<path fill="black" d="
  M 223.7392 778.9325
  A 12.82 12.15 81.3 0 1 209.7898 768.0978
  A 12.82 12.15 81.3 0 1 219.8608 753.5875
  A 12.82 12.15 81.3 0 1 233.8102 764.4222
  A 12.82 12.15 81.3 0 1 223.7392 778.9325
  Z
  M 228.3511 762.4081
  A 7.63 3.60 -29.8 0 0 219.9409 763.0760
  A 7.63 3.60 -29.8 0 0 215.1089 769.9919
  A 7.63 3.60 -29.8 0 0 223.5191 769.3240
  A 7.63 3.60 -29.8 0 0 228.3511 762.4081
  Z"
/>
<path fill="black" d="
  M 987.48 761.92
  C 986.41 760.53 983.85 758.09 986.04 756.31
  C 988.25 754.51 994.38 759.07 993.35 762.10
  Q 990.51 770.44 989.66 777.76
  Q 989.59 778.33 989.17 778.71
  Q 986.90 780.78 983.43 780.45
  C 981.39 780.26 979.88 778.40 981.08 776.46
  C 981.86 775.22 983.55 774.94 984.83 774.49
  Q 985.34 774.31 985.46 773.79
  Q 985.72 772.60 984.54 772.29
  Q 979.25 770.92 974.05 769.77
  Q 971.68 769.26 970.37 771.08
  Q 969.89 771.76 969.05 771.69
  Q 967.60 771.57 967.49 770.01
  Q 967.10 764.31 970.18 758.41
  C 970.63 757.55 971.68 756.90 972.65 757.40
  Q 973.16 757.66 973.07 758.23
  Q 972.76 760.28 974.72 760.97
  Q 980.93 763.15 986.35 763.86
  A 1.22 1.21 -14.9 0 0 987.48 761.92
  Z"
/>
<path fill="black" d="
  M 964.08 791.97
  A 1.09 1.09 0.0 0 0 966.12 792.13
  Q 967.62 788.82 968.11 785.69
  Q 968.27 784.68 967.40 784.20
  A 1.27 1.27 0.0 0 0 965.66 784.72
  Q 965.05 785.88 963.86 785.17
  A 1.41 1.39 15.6 0 1 963.17 783.97
  C 963.17 782.12 964.04 774.45 967.16 775.42
  A 0.81 0.80 9.5 0 1 967.73 776.21
  Q 967.64 778.63 969.54 780.17
  Q 974.08 783.85 979.26 787.71
  C 980.45 788.60 981.83 789.20 983.21 789.67
  C 986.67 790.86 985.84 794.83 983.67 796.68
  Q 982.15 797.99 979.05 798.64
  Q 971.95 800.15 963.76 801.48
  C 962.57 801.67 961.75 802.09 961.05 803.08
  A 1.33 1.33 0.0 0 1 958.69 802.67
  C 957.86 799.73 959.99 794.19 961.00 791.60
  Q 961.63 789.97 963.34 790.04
  A 0.74 0.74 0.0 0 1 964.04 790.92
  Q 963.94 791.45 964.08 791.97
  Z
  M 971.39 791.55
  Q 970.94 792.93 972.35 792.55
  L 976.27 791.49
  A 0.70 0.70 0.0 0 0 976.61 790.34
  Q 975.24 788.80 973.35 787.73
  Q 972.76 787.39 972.55 788.03
  L 971.39 791.55
  Z"
/>
<path fill="black" d="
  M 225.17 785.00
  Q 226.35 778.23 233.02 779.83
  C 236.42 780.65 238.19 784.16 238.93 787.39
  Q 240.25 793.05 242.20 798.71
  C 242.59 799.82 242.39 801.45 240.94 801.62
  A 1.09 1.07 -28.4 0 1 240.11 801.38
  Q 238.55 800.09 236.54 800.55
  Q 230.25 802.01 225.24 803.31
  Q 223.15 803.85 222.63 806.17
  Q 222.49 806.80 221.85 806.94
  Q 219.97 807.32 219.45 805.33
  Q 217.67 798.66 215.74 792.26
  C 214.82 789.23 216.22 784.68 220.07 784.67
  Q 221.45 784.67 222.76 784.54
  Q 223.35 784.48 223.83 784.83
  L 224.49 785.29
  Q 225.05 785.68 225.17 785.00
  Z
  M 235.48 791.54
  Q 236.50 791.08 236.38 789.97
  Q 236.13 787.64 233.84 787.80
  Q 230.29 788.05 229.71 791.22
  A 1.32 1.32 0.0 0 0 231.17 792.77
  Q 233.38 792.50 235.48 791.54
  Z
  M 221.05 795.78
  L 226.01 794.45
  A 0.74 0.74 0.0 0 0 226.53 793.55
  L 226.48 793.35
  A 2.80 2.59 -15.0 0 0 223.10 791.57
  L 222.12 791.83
  A 2.80 2.59 -15.0 0 0 220.09 795.06
  L 220.14 795.26
  A 0.74 0.74 0.0 0 0 221.05 795.78
  Z"
/>
<path fill="black" d="
  M 125.71 886.18
  C 126.41 860.26 127.85 833.31 134.55 809.13
  Q 138.57 794.63 146.12 782.41
  Q 146.48 781.83 146.79 782.44
  C 156.38 801.22 162.81 821.46 168.09 842.11
  Q 173.91 864.83 179.13 891.01
  Q 186.85 929.75 195.67 970.71
  Q 195.73 971.00 195.43 970.94
  C 149.76 960.43 101.39 941.87 67.65 908.69
  Q 28.53 870.21 22.77 814.72
  A 0.13 0.12 12.2 0 1 22.96 814.60
  Q 37.06 823.17 48.99 832.48
  Q 65.88 845.67 87.88 863.25
  Q 105.27 877.16 124.80 886.73
  Q 125.69 887.17 125.71 886.18
  Z"
/>
<path fill="black" d="
  M 1074.79 889.85
  A 0.39 0.39 0.0 0 0 1075.34 890.20
  C 1091.90 882.59 1107.07 871.44 1121.42 859.74
  C 1140.86 843.90 1157.54 830.12 1177.41 818.08
  Q 1177.86 817.81 1177.80 818.34
  Q 1171.65 873.99 1133.15 911.76
  C 1099.15 945.11 1051.29 963.51 1005.33 974.11
  Q 1004.82 974.22 1004.93 973.72
  Q 1013.52 933.60 1021.59 893.27
  C 1026.20 870.19 1031.45 846.68 1038.49 823.89
  Q 1044.77 803.53 1053.79 785.44
  A 0.25 0.25 0.0 0 1 1054.23 785.41
  Q 1060.57 795.32 1064.35 807.07
  C 1072.54 832.52 1074.35 862.36 1074.79 889.85
  Z"
/>
<path fill="black" d="
  M 243.58 804.29
  C 243.97 807.02 241.71 810.32 240.16 812.53
  C 238.12 815.46 232.16 811.54 229.85 809.77
  A 1.43 1.43 0.0 0 1 229.50 807.89
  Q 230.10 806.92 231.34 807.25
  Q 233.47 807.83 235.53 808.30
  A 2.72 2.72 0.0 0 0 238.25 807.37
  L 241.29 803.65
  A 1.30 1.30 0.0 0 1 243.58 804.29
  Z"
/>
<path fill="black" d="
  M 964.83 810.33
  Q 967.03 810.01 969.40 809.28
  C 970.43 808.96 971.58 809.38 971.68 810.58
  A 1.56 1.56 0.0 0 1 971.10 811.93
  C 969.11 813.52 962.87 817.55 960.70 814.52
  Q 958.44 811.36 957.25 807.46
  A 1.82 1.78 -44.5 0 1 957.27 806.38
  Q 957.77 804.91 958.98 805.29
  Q 959.72 805.53 960.19 806.15
  Q 961.56 807.98 963.02 809.66
  A 2.01 2.01 0.0 0 0 964.83 810.33
  Z"
/>
<path fill="black" d="
  M 240.83 816.12
  L 243.91 812.36
  A 1.60 1.60 0.0 0 1 245.85 811.93
  Q 246.80 812.39 246.50 813.59
  Q 245.37 818.10 242.73 821.19
  C 240.51 823.77 234.62 819.73 232.72 818.25
  A 1.36 1.36 0.0 0 1 232.21 817.02
  Q 232.38 815.50 233.85 815.72
  Q 236.14 816.05 238.51 816.81
  Q 239.90 817.25 240.83 816.12
  Z"
/>
<path fill="black" d="
  M 961.61 818.81
  Q 964.08 818.52 966.84 817.63
  A 1.46 1.46 0.0 0 1 968.69 819.43
  Q 968.41 820.40 967.50 820.99
  C 965.31 822.39 959.89 825.78 957.84 822.94
  C 956.79 821.49 954.18 817.06 954.40 815.01
  A 1.46 1.46 0.0 0 1 956.99 814.25
  L 960.20 818.23
  A 1.59 1.57 67.0 0 0 961.61 818.81
  Z"
/>
<path fill="black" d="
  M 231.34 992.58
  L 211.03 903.44
  Q 210.90 902.88 211.45 903.07
  C 246.69 915.53 266.87 945.31 282.57 977.81
  Q 293.06 999.51 301.42 1016.49
  C 311.58 1037.14 324.00 1056.87 340.39 1073.32
  Q 340.81 1073.74 340.21 1073.73
  C 245.06 1071.89 142.34 1046.10 92.50 956.34
  Q 92.30 955.97 92.68 956.14
  C 136.40 975.63 183.88 986.71 231.08 992.87
  A 0.24 0.23 87.4 0 0 231.34 992.58
  Z"
/>
<path fill="black" d="
  M 969.57 996.41
  Q 1013.72 990.65 1054.98 978.90
  Q 1082.62 971.03 1107.79 959.61
  A 0.19 0.19 0.0 0 1 1108.03 959.87
  Q 1082.71 1005.03 1037.99 1032.69
  C 1007.46 1051.57 972.55 1063.26 937.13 1069.57
  Q 898.96 1076.38 860.55 1076.82
  Q 859.82 1076.82 860.33 1076.31
  C 879.55 1056.86 892.53 1033.97 904.11 1009.54
  Q 915.08 986.40 925.05 967.41
  Q 934.24 949.92 946.67 935.54
  Q 964.26 915.17 989.04 906.31
  Q 989.65 906.09 989.50 906.72
  L 969.23 996.03
  Q 969.13 996.47 969.57 996.41
  Z"
/>
<path fill="black" d="
  M 1118.63 1194.00
  L 1118.25 1194.00
  L 630.63 1189.49
  Q 630.00 1189.48 629.56 1189.93
  L 626.31 1193.24
  Q 625.82 1193.74 625.12 1193.74
  L 575.25 1193.74
  Q 574.57 1193.74 574.09 1193.26
  L 570.75 1189.98
  Q 570.31 1189.54 569.69 1189.55
  Q 332.34 1191.69 95.00 1193.84
  Q 89.19 1193.89 82.92 1193.64
  Q 82.38 1193.62 82.65 1193.14
  L 111.62 1141.99
  Q 111.88 1141.53 112.41 1141.58
  C 156.51 1145.52 200.08 1140.51 242.86 1130.92
  Q 278.94 1122.84 317.51 1112.86
  Q 345.69 1105.58 374.77 1099.86
  C 408.32 1093.26 442.88 1089.78 476.81 1092.84
  C 520.99 1096.83 562.55 1112.99 598.74 1138.56
  A 1.04 1.04 0.0 0 0 600.01 1138.52
  Q 645.18 1101.35 700.30 1092.96
  C 735.46 1087.61 770.95 1090.63 807.06 1097.37
  Q 830.38 1101.73 850.05 1106.59
  Q 893.68 1117.36 932.35 1126.64
  Q 968.12 1135.23 1004.03 1139.94
  Q 1047.28 1145.60 1090.19 1141.62
  A 0.70 0.69 72.9 0 1 1090.86 1141.98
  L 1118.63 1194.00
  Z
  M 599.45 1155.70
  C 562.72 1128.13 520.84 1110.47 474.92 1106.45
  C 430.40 1102.56 384.85 1110.23 340.46 1121.16
  Q 305.49 1129.78 270.45 1138.47
  C 221.12 1150.70 170.67 1159.25 119.75 1155.70
  Q 119.28 1155.67 119.04 1156.08
  L 105.77 1179.79
  Q 105.49 1180.28 106.06 1180.28
  L 575.19 1176.07
  Q 575.64 1176.07 575.98 1176.37
  Q 577.24 1177.48 578.43 1178.92
  C 579.07 1179.69 579.79 1180.34 580.83 1180.34
  Q 600.33 1180.31 619.52 1180.33
  A 1.33 1.33 0.0 0 0 620.46 1179.94
  L 624.01 1176.37
  A 1.11 1.09 22.0 0 1 624.79 1176.05
  L 1095.97 1180.40
  A 0.25 0.25 0.0 0 0 1096.19 1180.03
  L 1083.03 1156.03
  A 0.47 0.46 -15.8 0 0 1082.59 1155.79
  C 1044.10 1158.71 1006.25 1155.17 967.63 1147.93
  Q 948.04 1144.26 931.49 1140.33
  Q 896.08 1131.95 859.33 1122.72
  Q 837.19 1117.17 811.01 1111.95
  C 772.53 1104.28 733.71 1100.73 696.40 1107.60
  Q 649.35 1116.26 610.49 1147.36
  Q 605.35 1151.47 600.52 1155.66
  Q 600.00 1156.11 599.45 1155.70
  Z"
/>
</svg>
